# xmcd
#
# Track frame offsets: 
#        225
#        13703
#        21560
#        33794
#        54647
#        66264
#        98010
#        110091
#        121783
#        134631
#        148002
#        164807
#        183781
#        203617
#        218377
#        230100
#        244656
#        256062
#        270775
#        278491
#        290872
#        300553
#        310895
#        328360
#        338265
#
# Disc length: 4667 seconds
#
# Revision: 0
# Processed by: cddbd v1.5.2PL0 Copyright (c) Steve Scherf et al.
# Submitted via: ExactAudioCopy v0.99pb4
#
DISCID=6d123819
DTITLE=Various Artist - 101 Country Greats [Box Set] CD3
DYEAR=2003
DGENRE=Country
TTITLE0=Rockin' Sydney - My Toot Toot
TTITLE1=Johnny Tillotson - Send Me the Pillow That You Dream On
TTITLE2=Sweethearts of the Rodeo - Hey Doll Baby
TTITLE3=Tanya Tucker - Texas When I Die
TTITLE4=Tammy Wynette - D-I-V-O-R-C-E
TTITLE5=Box Car Willie - Hank Williams Medley
TTITLE6=Bob Wills - Take Me Back to Tulsa
TTITLE7=Faron Young - Unmittigated Gall
TTITLE8=Alabama, Alabama - Lovin' You Is Killin' Me
TTITLE9=Roy Acuff - Tennessee Waltz
TTITLE10=Atlanta - Sweet Country Music
TTITLE11=Razzy Bailey - I Keep Coming Back
TTITLE12=The Bellamy Brothers - If I Said You Had a Beautiful Body
TTITLE13=Ed Bruce - You're the Best Break This Old Heart Ever Had
TTITLE14=Patsy Cline - Let the Teardrops Fall
TTITLE15=Barbara Fairchild - Baby Doll
TTITLE16=Tom T. Hall - Ravishing Ruby
TTITLE17=Merle Haggard - Fightin' Side of Me
TTITLE18=Jimmy Dean - I Didn't Have Time
TTITLE19=Earl Thomas Conley - Fire and Smoke
TTITLE20=Gail Davies - Singing the Blues
TTITLE21=George Jones - Walk Through This World With Me
TTITLE22=Ferlin Husky - Convoy
TTITLE23=Becky Hobbs - Knock Knock
TTITLE24=Dave and Sugar Rowland - Tear Time
EXTD=
EXTT0=
EXTT1=
EXTT2=
EXTT3=
EXTT4=
EXTT5=
EXTT6=
EXTT7=
EXTT8=
EXTT9=
EXTT10=
EXTT11=
EXTT12=
EXTT13=
EXTT14=
EXTT15=
EXTT16=
EXTT17=
EXTT18=
EXTT19=
EXTT20=
EXTT21=
EXTT22=
EXTT23=
EXTT24=
PLAYORDER=
